<?xml version="1.0" standalone="no"?>
<!DOCTYPE svg PUBLIC "-//W3C//DTD SVG 20010904//EN"
 "http://www.w3.org/TR/2001/REC-SVG-20010904/DTD/svg10.dtd">
<svg version="1.0" xmlns="http://www.w3.org/2000/svg"
 width="225.000000pt" height="225.000000pt" viewBox="0 0 225.000000 225.000000"
 preserveAspectRatio="xMidYMid meet">
<metadata>
Created by potrace 1.14, written by Peter Selinger 2001-2017
</metadata>
<g transform="translate(0.000000,225.000000) scale(0.100000,-0.100000)"
fill="#000000" stroke="none">
<path d="M1040 2124 c-14 -2 -56 -9 -95 -15 -99 -16 -239 -68 -336 -125 -105
-62 -257 -209 -328 -319 -118 -182 -177 -429 -152 -636 30 -257 119 -440 301
-619 194 -192 418 -283 695 -283 262 0 489 88 675 260 164 153 269 340 311
558 17 90 17 270 0 360 -78 403 -385 717 -783 800 -72 15 -244 27 -288 19z
m281 -88 c350 -74 638 -363 716 -721 21 -92 21 -288 0 -380 -79 -360 -362
-643 -722 -722 -92 -21 -288 -21 -380 0 -360 79 -643 362 -722 722 -21 92 -21
288 0 380 84 387 404 682 792 734 84 11 226 5 316 -13z"/>
<path d="M935 1855 c-250 -55 -445 -231 -520 -469 -34 -107 -44 -216 -20 -236
30 -25 49 -1 58 76 34 314 257 537 571 571 75 9 101 28 77 57 -16 20 -81 20
-166 1z"/>
<path d="M981 1639 c-131 -26 -266 -130 -327 -254 -45 -90 -66 -207 -42 -231
26 -26 58 -9 58 30 0 48 27 143 55 189 28 49 105 125 156 155 41 25 139 52
185 52 24 0 34 5 39 20 14 46 -26 58 -124 39z"/>
<path d="M1003 1461 c-91 -34 -166 -103 -206 -189 -31 -68 -31 -226 1 -295 30
-66 104 -142 171 -174 50 -25 67 -28 156 -28 89 0 106 3 156 28 67 32 141 108
171 174 18 39 22 67 23 148 0 89 -3 106 -28 156 -33 67 -109 142 -174 171 -70
30 -201 35 -270 9z m244 -74 c51 -27 101 -75 131 -126 24 -41 27 -56 27 -136
0 -67 -5 -98 -18 -122 -28 -52 -76 -101 -126 -131 -41 -24 -56 -27 -136 -27
-80 0 -95 3 -136 27 -51 30 -100 81 -125 131 -22 41 -30 150 -15 203 21 78 98
160 178 190 50 19 177 13 220 -9z"/>
<path d="M1073 1289 c-74 -22 -133 -119 -118 -192 43 -204 339 -179 339 28 0
115 -112 197 -221 164z m114 -84 c34 -23 47 -76 29 -120 -34 -79 -141 -81
-180 -2 -16 34 -17 42 -4 75 24 64 94 86 155 47z"/>
<path d="M1602 1088 c-6 -6 -12 -26 -12 -44 0 -53 -36 -153 -76 -211 -63 -92
-153 -146 -278 -167 -75 -13 -100 -32 -77 -60 16 -19 50 -20 123 -5 135 28
266 129 326 251 37 75 62 200 46 226 -14 22 -36 26 -52 10z"/>
<path d="M1823 1088 c-6 -7 -13 -45 -17 -84 -21 -244 -197 -459 -441 -538 -28
-9 -84 -19 -124 -24 -81 -8 -107 -26 -82 -56 46 -56 323 27 463 139 145 114
258 337 258 507 0 59 -31 89 -57 56z"/>
</g>
</svg>
